solid OpenSCAD_Model
  facet normal 0 0 -1
    outer loop
      vertex -9 0 0
      vertex -9 20 0
      vertex 9 20 0
    endloop
  endfacet
  facet normal 0 0 -1
    outer loop
      vertex -9 0 0
      vertex 9 20 0
      vertex 9 0 0
    endloop
  endfacet
  facet normal 0 0 1
    outer loop
      vertex -9 0 2.4
      vertex 9 0 2.4
      vertex 9 20 2.4
    endloop
  endfacet
  facet normal 0 0 1
    outer loop
      vertex -9 0 2.4
      vertex 9 20 2.4
      vertex -9 20 2.4
    endloop
  endfacet
  facet normal 0 -1 0
    outer loop
      vertex -9 0 0
      vertex 9 0 0
      vertex 9 0 2.4
    endloop
  endfacet
  facet normal 0 -1 0
    outer loop
      vertex -9 0 0
      vertex 9 0 2.4
      vertex -9 0 2.4
    endloop
  endfacet
  facet normal 0 1 0
    outer loop
      vertex -9 20 0
      vertex -9 20 2.4
      vertex 9 20 2.4
    endloop
  endfacet
  facet normal 0 1 0
    outer loop
      vertex -9 20 0
      vertex 9 20 2.4
      vertex 9 20 0
    endloop
  endfacet
  facet normal -1 0 0
    outer loop
      vertex -9 0 0
      vertex -9 0 2.4
      vertex -9 20 2.4
    endloop
  endfacet
  facet normal -1 0 0
    outer loop
      vertex -9 0 0
      vertex -9 20 2.4
      vertex -9 20 0
    endloop
  endfacet
  facet normal 1 0 0
    outer loop
      vertex 9 0 0
      vertex 9 20 0
      vertex 9 20 2.4
    endloop
  endfacet
  facet normal 1 0 0
    outer loop
      vertex 9 0 0
      vertex 9 20 2.4
      vertex 9 0 2.4
    endloop
  endfacet
  facet normal 0 0 -1
    outer loop
      vertex -9 0 2.4
      vertex -9 5.2 2.4
      vertex 9 5.2 2.4
    endloop
  endfacet
  facet normal 0 0 -1
    outer loop
      vertex -9 0 2.4
      vertex 9 5.2 2.4
      vertex 9 0 2.4
    endloop
  endfacet
  facet normal 0 0 1
    outer loop
      vertex -9 0 3.2
      vertex 9 0 3.2
      vertex 9 5.2 3.2
    endloop
  endfacet
  facet normal 0 0 1
    outer loop
      vertex -9 0 3.2
      vertex 9 5.2 3.2
      vertex -9 5.2 3.2
    endloop
  endfacet
  facet normal 0 -1 0
    outer loop
      vertex -9 0 2.4
      vertex 9 0 2.4
      vertex 9 0 3.2
    endloop
  endfacet
  facet normal 0 -1 0
    outer loop
      vertex -9 0 2.4
      vertex 9 0 3.2
      vertex -9 0 3.2
    endloop
  endfacet
  facet normal 0 1 0
    outer loop
      vertex -9 5.2 2.4
      vertex -9 5.2 3.2
      vertex 9 5.2 3.2
    endloop
  endfacet
  facet normal 0 1 0
    outer loop
      vertex -9 5.2 2.4
      vertex 9 5.2 3.2
      vertex 9 5.2 2.4
    endloop
  endfacet
  facet normal -1 0 0
    outer loop
      vertex -9 0 2.4
      vertex -9 0 3.2
      vertex -9 5.2 3.2
    endloop
  endfacet
  facet normal -1 0 0
    outer loop
      vertex -9 0 2.4
      vertex -9 5.2 3.2
      vertex -9 5.2 2.4
    endloop
  endfacet
  facet normal 1 0 0
    outer loop
      vertex 9 0 2.4
      vertex 9 5.2 2.4
      vertex 9 5.2 3.2
    endloop
  endfacet
  facet normal 1 0 0
    outer loop
      vertex 9 0 2.4
      vertex 9 5.2 3.2
      vertex 9 0 3.2
    endloop
  endfacet
  facet normal 0 0 -1
    outer loop
      vertex -9 18 2.4
      vertex -9 20 2.4
      vertex 9 20 2.4
    endloop
  endfacet
  facet normal 0 0 -1
    outer loop
      vertex -9 18 2.4
      vertex 9 20 2.4
      vertex 9 18 2.4
    endloop
  endfacet
  facet normal 0 0 1
    outer loop
      vertex -9 18 3.2
      vertex 9 18 3.2
      vertex 9 20 3.2
    endloop
  endfacet
  facet normal 0 0 1
    outer loop
      vertex -9 18 3.2
      vertex 9 20 3.2
      vertex -9 20 3.2
    endloop
  endfacet
  facet normal 0 -1 0
    outer loop
      vertex -9 18 2.4
      vertex 9 18 2.4
      vertex 9 18 3.2
    endloop
  endfacet
  facet normal 0 -1 0
    outer loop
      vertex -9 18 2.4
      vertex 9 18 3.2
      vertex -9 18 3.2
    endloop
  endfacet
  facet normal 0 1 0
    outer loop
      vertex -9 20 2.4
      vertex -9 20 3.2
      vertex 9 20 3.2
    endloop
  endfacet
  facet normal 0 1 0
    outer loop
      vertex -9 20 2.4
      vertex 9 20 3.2
      vertex 9 20 2.4
    endloop
  endfacet
  facet normal -1 0 0
    outer loop
      vertex -9 18 2.4
      vertex -9 18 3.2
      vertex -9 20 3.2
    endloop
  endfacet
  facet normal -1 0 0
    outer loop
      vertex -9 18 2.4
      vertex -9 20 3.2
      vertex -9 20 2.4
    endloop
  endfacet
  facet normal 1 0 0
    outer loop
      vertex 9 18 2.4
      vertex 9 20 2.4
      vertex 9 20 3.2
    endloop
  endfacet
  facet normal 1 0 0
    outer loop
      vertex 9 18 2.4
      vertex 9 20 3.2
      vertex 9 18 3.2
    endloop
  endfacet
  facet normal 0 0 -1
    outer loop
      vertex -9 5.2 2.4
      vertex -9 18 2.4
      vertex -6.4 18 2.4
    endloop
  endfacet
  facet normal 0 0 -1
    outer loop
      vertex -9 5.2 2.4
      vertex -6.4 18 2.4
      vertex -6.4 5.2 2.4
    endloop
  endfacet
  facet normal 0 0 1
    outer loop
      vertex -9 5.2 3.2
      vertex -6.4 5.2 3.2
      vertex -6.4 18 3.2
    endloop
  endfacet
  facet normal 0 0 1
    outer loop
      vertex -9 5.2 3.2
      vertex -6.4 18 3.2
      vertex -9 18 3.2
    endloop
  endfacet
  facet normal 0 -1 0
    outer loop
      vertex -9 5.2 2.4
      vertex -6.4 5.2 2.4
      vertex -6.4 5.2 3.2
    endloop
  endfacet
  facet normal 0 -1 0
    outer loop
      vertex -9 5.2 2.4
      vertex -6.4 5.2 3.2
      vertex -9 5.2 3.2
    endloop
  endfacet
  facet normal 0 1 0
    outer loop
      vertex -9 18 2.4
      vertex -9 18 3.2
      vertex -6.4 18 3.2
    endloop
  endfacet
  facet normal 0 1 0
    outer loop
      vertex -9 18 2.4
      vertex -6.4 18 3.2
      vertex -6.4 18 2.4
    endloop
  endfacet
  facet normal -1 0 0
    outer loop
      vertex -9 5.2 2.4
      vertex -9 5.2 3.2
      vertex -9 18 3.2
    endloop
  endfacet
  facet normal -1 0 0
    outer loop
      vertex -9 5.2 2.4
      vertex -9 18 3.2
      vertex -9 18 2.4
    endloop
  endfacet
  facet normal 1 0 0
    outer loop
      vertex -6.4 5.2 2.4
      vertex -6.4 18 2.4
      vertex -6.4 18 3.2
    endloop
  endfacet
  facet normal 1 0 0
    outer loop
      vertex -6.4 5.2 2.4
      vertex -6.4 18 3.2
      vertex -6.4 5.2 3.2
    endloop
  endfacet
  facet normal 0 0 -1
    outer loop
      vertex 6.4 5.2 2.4
      vertex 6.4 18 2.4
      vertex 9 18 2.4
    endloop
  endfacet
  facet normal 0 0 -1
    outer loop
      vertex 6.4 5.2 2.4
      vertex 9 18 2.4
      vertex 9 5.2 2.4
    endloop
  endfacet
  facet normal 0 0 1
    outer loop
      vertex 6.4 5.2 3.2
      vertex 9 5.2 3.2
      vertex 9 18 3.2
    endloop
  endfacet
  facet normal 0 0 1
    outer loop
      vertex 6.4 5.2 3.2
      vertex 9 18 3.2
      vertex 6.4 18 3.2
    endloop
  endfacet
  facet normal 0 -1 0
    outer loop
      vertex 6.4 5.2 2.4
      vertex 9 5.2 2.4
      vertex 9 5.2 3.2
    endloop
  endfacet
  facet normal 0 -1 0
    outer loop
      vertex 6.4 5.2 2.4
      vertex 9 5.2 3.2
      vertex 6.4 5.2 3.2
    endloop
  endfacet
  facet normal 0 1 0
    outer loop
      vertex 6.4 18 2.4
      vertex 6.4 18 3.2
      vertex 9 18 3.2
    endloop
  endfacet
  facet normal 0 1 0
    outer loop
      vertex 6.4 18 2.4
      vertex 9 18 3.2
      vertex 9 18 2.4
    endloop
  endfacet
  facet normal -1 0 0
    outer loop
      vertex 6.4 5.2 2.4
      vertex 6.4 5.2 3.2
      vertex 6.4 18 3.2
    endloop
  endfacet
  facet normal -1 0 0
    outer loop
      vertex 6.4 5.2 2.4
      vertex 6.4 18 3.2
      vertex 6.4 18 2.4
    endloop
  endfacet
  facet normal 1 0 0
    outer loop
      vertex 9 5.2 2.4
      vertex 9 18 2.4
      vertex 9 18 3.2
    endloop
  endfacet
  facet normal 1 0 0
    outer loop
      vertex 9 5.2 2.4
      vertex 9 18 3.2
      vertex 9 5.2 3.2
    endloop
  endfacet
  facet normal 0 0 -1
    outer loop
      vertex -4 1.2 3.2
      vertex -4 4 3.2
      vertex 4 4 3.2
    endloop
  endfacet
  facet normal 0 0 -1
    outer loop
      vertex -4 1.2 3.2
      vertex 4 4 3.2
      vertex 4 1.2 3.2
    endloop
  endfacet
  facet normal 0 0 1
    outer loop
      vertex -4 1.2 7.7
      vertex 4 1.2 7.7
      vertex 4 4 7.7
    endloop
  endfacet
  facet normal 0 0 1
    outer loop
      vertex -4 1.2 7.7
      vertex 4 4 7.7
      vertex -4 4 7.7
    endloop
  endfacet
  facet normal 0 -1 0
    outer loop
      vertex -4 1.2 3.2
      vertex 4 1.2 3.2
      vertex 4 1.2 7.7
    endloop
  endfacet
  facet normal 0 -1 0
    outer loop
      vertex -4 1.2 3.2
      vertex 4 1.2 7.7
      vertex -4 1.2 7.7
    endloop
  endfacet
  facet normal 0 1 0
    outer loop
      vertex -4 4 3.2
      vertex -4 4 7.7
      vertex 4 4 7.7
    endloop
  endfacet
  facet normal 0 1 0
    outer loop
      vertex -4 4 3.2
      vertex 4 4 7.7
      vertex 4 4 3.2
    endloop
  endfacet
  facet normal -1 0 0
    outer loop
      vertex -4 1.2 3.2
      vertex -4 1.2 7.7
      vertex -4 4 7.7
    endloop
  endfacet
  facet normal -1 0 0
    outer loop
      vertex -4 1.2 3.2
      vertex -4 4 7.7
      vertex -4 4 3.2
    endloop
  endfacet
  facet normal 1 0 0
    outer loop
      vertex 4 1.2 3.2
      vertex 4 4 3.2
      vertex 4 4 7.7
    endloop
  endfacet
  facet normal 1 0 0
    outer loop
      vertex 4 1.2 3.2
      vertex 4 4 7.7
      vertex 4 1.2 7.7
    endloop
  endfacet
endsolid OpenSCAD_Model
