solid OpenSCAD_Model
  facet normal 1 -0 0
    outer loop
      vertex 7 -5 12
      vertex 7 5 0
      vertex 7 5 12
    endloop
  endfacet
  facet normal 1 0 0
    outer loop
      vertex 7 5 0
      vertex 7 -5 12
      vertex 7 -5 0
    endloop
  endfacet
  facet normal 0 0 1
    outer loop
      vertex 7 5 12
      vertex 4 1.4 12
      vertex 7 -5 12
    endloop
  endfacet
  facet normal 0 0 1
    outer loop
      vertex 7 5 12
      vertex -4 1.4 12
      vertex 4 1.4 12
    endloop
  endfacet
  facet normal 0 0 1
    outer loop
      vertex -4 1.4 12
      vertex -7 5 12
      vertex -4 -1.4 12
    endloop
  endfacet
  facet normal -0 0 1
    outer loop
      vertex -7 5 12
      vertex -4 1.4 12
      vertex 7 5 12
    endloop
  endfacet
  facet normal -0 0 1
    outer loop
      vertex 4 -1.4 12
      vertex 7 -5 12
      vertex 4 1.4 12
    endloop
  endfacet
  facet normal -0 0 1
    outer loop
      vertex -4 -1.4 12
      vertex 7 -5 12
      vertex 4 -1.4 12
    endloop
  endfacet
  facet normal 0 0 1
    outer loop
      vertex -4 -1.4 12
      vertex -7 -5 12
      vertex 7 -5 12
    endloop
  endfacet
  facet normal 0 0 1
    outer loop
      vertex -7 -5 12
      vertex -4 -1.4 12
      vertex -7 5 12
    endloop
  endfacet
  facet normal 0 0 -1
    outer loop
      vertex 7 -5 0
      vertex 6.3 -0.275 0
      vertex 7 5 0
    endloop
  endfacet
  facet normal 0 0 -1
    outer loop
      vertex 7 -5 0
      vertex -6.3 -0.275 0
      vertex 6.3 -0.275 0
    endloop
  endfacet
  facet normal -0 0 -1
    outer loop
      vertex -6.3 -0.275 0
      vertex -7 -5 0
      vertex -6.3 0.275 0
    endloop
  endfacet
  facet normal 0 0 -1
    outer loop
      vertex -7 -5 0
      vertex -6.3 -0.275 0
      vertex 7 -5 0
    endloop
  endfacet
  facet normal 0 0 -1
    outer loop
      vertex 6.3 0.275 0
      vertex 7 5 0
      vertex 6.3 -0.275 0
    endloop
  endfacet
  facet normal 0 0 -1
    outer loop
      vertex -6.3 0.275 0
      vertex 7 5 0
      vertex 6.3 0.275 0
    endloop
  endfacet
  facet normal 0 0 -1
    outer loop
      vertex -6.3 0.275 0
      vertex -7 5 0
      vertex 7 5 0
    endloop
  endfacet
  facet normal 0 0 -1
    outer loop
      vertex -7 5 0
      vertex -6.3 0.275 0
      vertex -7 -5 0
    endloop
  endfacet
  facet normal -1 0 0
    outer loop
      vertex -7 -5 0
      vertex -7 5 12
      vertex -7 5 0
    endloop
  endfacet
  facet normal -1 -0 0
    outer loop
      vertex -7 5 12
      vertex -7 -5 0
      vertex -7 -5 12
    endloop
  endfacet
  facet normal 0 1 -0
    outer loop
      vertex 7 5 0
      vertex -7 5 12
      vertex 7 5 12
    endloop
  endfacet
  facet normal 0 1 0
    outer loop
      vertex -7 5 12
      vertex 7 5 0
      vertex -7 5 0
    endloop
  endfacet
  facet normal 0 -1 0
    outer loop
      vertex -7 -5 0
      vertex 7 -5 12
      vertex -7 -5 12
    endloop
  endfacet
  facet normal 0 -1 -0
    outer loop
      vertex 7 -5 12
      vertex -7 -5 0
      vertex 7 -5 0
    endloop
  endfacet
  facet normal -1 0 0
    outer loop
      vertex 6.3 -0.275 0
      vertex 6.3 0.275 9
      vertex 6.3 0.275 0
    endloop
  endfacet
  facet normal -1 -0 0
    outer loop
      vertex 6.3 0.275 9
      vertex 6.3 -0.275 0
      vertex 6.3 -0.275 9
    endloop
  endfacet
  facet normal 0 0 -1
    outer loop
      vertex -6.3 -0.275 9
      vertex 6.3 0.275 9
      vertex 6.3 -0.275 9
    endloop
  endfacet
  facet normal -0 0 -1
    outer loop
      vertex 6.3 0.275 9
      vertex -6.3 -0.275 9
      vertex -6.3 0.275 9
    endloop
  endfacet
  facet normal 1 -0 0
    outer loop
      vertex -6.3 -0.275 9
      vertex -6.3 0.275 0
      vertex -6.3 0.275 9
    endloop
  endfacet
  facet normal 1 0 0
    outer loop
      vertex -6.3 0.275 0
      vertex -6.3 -0.275 9
      vertex -6.3 -0.275 0
    endloop
  endfacet
  facet normal 0 -1 0
    outer loop
      vertex -6.3 0.275 0
      vertex 6.3 0.275 9
      vertex -6.3 0.275 9
    endloop
  endfacet
  facet normal 0 -1 -0
    outer loop
      vertex 6.3 0.275 9
      vertex -6.3 0.275 0
      vertex 6.3 0.275 0
    endloop
  endfacet
  facet normal 0 1 -0
    outer loop
      vertex 6.3 -0.275 0
      vertex -6.3 -0.275 9
      vertex 6.3 -0.275 9
    endloop
  endfacet
  facet normal 0 1 0
    outer loop
      vertex -6.3 -0.275 9
      vertex 6.3 -0.275 0
      vertex -6.3 -0.275 0
    endloop
  endfacet
  facet normal 1 -0 0
    outer loop
      vertex 4 -1.4 16.2
      vertex 4 1.4 12
      vertex 4 1.4 16.2
    endloop
  endfacet
  facet normal 1 0 0
    outer loop
      vertex 4 1.4 12
      vertex 4 -1.4 16.2
      vertex 4 -1.4 12
    endloop
  endfacet
  facet normal -0 0 1
    outer loop
      vertex -4 1.4 16.2
      vertex 4 -1.4 16.2
      vertex 4 1.4 16.2
    endloop
  endfacet
  facet normal 0 0 1
    outer loop
      vertex 4 -1.4 16.2
      vertex -4 1.4 16.2
      vertex -4 -1.4 16.2
    endloop
  endfacet
  facet normal -1 0 0
    outer loop
      vertex -4 -1.4 12
      vertex -4 1.4 16.2
      vertex -4 1.4 12
    endloop
  endfacet
  facet normal -1 -0 0
    outer loop
      vertex -4 1.4 16.2
      vertex -4 -1.4 12
      vertex -4 -1.4 16.2
    endloop
  endfacet
  facet normal 0 1 -0
    outer loop
      vertex 4 1.4 12
      vertex -4 1.4 16.2
      vertex 4 1.4 16.2
    endloop
  endfacet
  facet normal 0 1 0
    outer loop
      vertex -4 1.4 16.2
      vertex 4 1.4 12
      vertex -4 1.4 12
    endloop
  endfacet
  facet normal 0 -1 0
    outer loop
      vertex -4 -1.4 12
      vertex 4 -1.4 16.2
      vertex -4 -1.4 16.2
    endloop
  endfacet
  facet normal 0 -1 -0
    outer loop
      vertex 4 -1.4 16.2
      vertex -4 -1.4 12
      vertex 4 -1.4 12
    endloop
  endfacet
endsolid OpenSCAD_Model
