solid OpenSCAD_Model
  facet normal -1 0 0
    outer loop
      vertex -5.7 0 0
      vertex -5.7 10.5 2.2
      vertex -5.7 10.5 0
    endloop
  endfacet
  facet normal -1 -0 0
    outer loop
      vertex -5.7 10.5 2.2
      vertex -5.7 0 0
      vertex -5.7 0 2.2
    endloop
  endfacet
  facet normal 1 -0 0
    outer loop
      vertex -6.3 0 2.2
      vertex -6.3 10.5 0
      vertex -6.3 10.5 2.2
    endloop
  endfacet
  facet normal 1 0 0
    outer loop
      vertex -6.3 10.5 0
      vertex -6.3 0 2.2
      vertex -6.3 0 0
    endloop
  endfacet
  facet normal 0 -1 0
    outer loop
      vertex -6.3 10.5 0
      vertex -5.7 10.5 2.2
      vertex -6.3 10.5 2.2
    endloop
  endfacet
  facet normal 0 -1 -0
    outer loop
      vertex -5.7 10.5 2.2
      vertex -6.3 10.5 0
      vertex -5.7 10.5 0
    endloop
  endfacet
  facet normal -1 0 0
    outer loop
      vertex 6.3 0 0
      vertex 6.3 10.5 2.2
      vertex 6.3 10.5 0
    endloop
  endfacet
  facet normal -1 -0 0
    outer loop
      vertex 6.3 10.5 2.2
      vertex 6.3 0 0
      vertex 6.3 0 2.2
    endloop
  endfacet
  facet normal 1 -0 0
    outer loop
      vertex 5.7 0 2.2
      vertex 5.7 10.5 0
      vertex 5.7 10.5 2.2
    endloop
  endfacet
  facet normal 1 0 0
    outer loop
      vertex 5.7 10.5 0
      vertex 5.7 0 2.2
      vertex 5.7 0 0
    endloop
  endfacet
  facet normal 0 -1 0
    outer loop
      vertex 5.7 10.5 0
      vertex 6.3 10.5 2.2
      vertex 5.7 10.5 2.2
    endloop
  endfacet
  facet normal 0 -1 -0
    outer loop
      vertex 6.3 10.5 2.2
      vertex 5.7 10.5 0
      vertex 6.3 10.5 0
    endloop
  endfacet
  facet normal 0 0 -1
    outer loop
      vertex -6.3 0 0
      vertex -7 0 0
      vertex -6.3 10.5 0
    endloop
  endfacet
  facet normal 0 0 -1
    outer loop
      vertex -5.7 10.5 0
      vertex 5.7 10.5 0
      vertex 5.7 0 0
    endloop
  endfacet
  facet normal 0 0 -1
    outer loop
      vertex -5.7 10.5 0
      vertex 5.7 0 0
      vertex -5.7 0 0
    endloop
  endfacet
  facet normal 0 0 -1
    outer loop
      vertex -6 26 0
      vertex 5.7 10.5 0
      vertex -5.7 10.5 0
    endloop
  endfacet
  facet normal 0 0 -1
    outer loop
      vertex 5.7 10.5 0
      vertex -6 26 0
      vertex 0 34 0
    endloop
  endfacet
  facet normal 0 0 -1
    outer loop
      vertex -9 14 0
      vertex -5.7 10.5 0
      vertex -6.3 10.5 0
    endloop
  endfacet
  facet normal 0 0 -1
    outer loop
      vertex -9 14 0
      vertex -6.3 10.5 0
      vertex -7 0 0
    endloop
  endfacet
  facet normal 0 0 -1
    outer loop
      vertex -5.7 10.5 0
      vertex -9 14 0
      vertex -6 26 0
    endloop
  endfacet
  facet normal -0 0 -1
    outer loop
      vertex -6 26 0
      vertex -9 14 0
      vertex -18 32 0
    endloop
  endfacet
  facet normal 0 0 -1
    outer loop
      vertex 6.3 10.5 0
      vertex 7 0 0
      vertex 6.3 0 0
    endloop
  endfacet
  facet normal 0 0 -1
    outer loop
      vertex 7 0 0
      vertex 6.3 10.5 0
      vertex 9 14 0
    endloop
  endfacet
  facet normal 0 0 -1
    outer loop
      vertex 5.7 10.5 0
      vertex 9 14 0
      vertex 6.3 10.5 0
    endloop
  endfacet
  facet normal 0 0 -1
    outer loop
      vertex 9 14 0
      vertex 6 26 0
      vertex 18 32 0
    endloop
  endfacet
  facet normal -0 0 -1
    outer loop
      vertex 9 14 0
      vertex 5.7 10.5 0
      vertex 6 26 0
    endloop
  endfacet
  facet normal -0 0 -1
    outer loop
      vertex 6 26 0
      vertex 5.7 10.5 0
      vertex 0 34 0
    endloop
  endfacet
  facet normal 0 0 1
    outer loop
      vertex 6 26 2.2
      vertex -6 26 2.2
      vertex -5.7 10.5 2.2
    endloop
  endfacet
  facet normal -0 0 1
    outer loop
      vertex -9 14 2.2
      vertex -5.7 10.5 2.2
      vertex -6 26 2.2
    endloop
  endfacet
  facet normal 0 0 1
    outer loop
      vertex -6.3 10.5 2.2
      vertex -7 0 2.2
      vertex -6.3 0 2.2
    endloop
  endfacet
  facet normal 0 0 1
    outer loop
      vertex -5.7 10.5 2.2
      vertex -9 14 2.2
      vertex -6.3 10.5 2.2
    endloop
  endfacet
  facet normal 0 0 1
    outer loop
      vertex -6.3 10.5 2.2
      vertex -9 14 2.2
      vertex -7 0 2.2
    endloop
  endfacet
  facet normal 0 -0 1
    outer loop
      vertex -9 14 2.2
      vertex -6 26 2.2
      vertex -18 32 2.2
    endloop
  endfacet
  facet normal 0 0 1
    outer loop
      vertex 9 14 2.2
      vertex 6.3 10.5 2.2
      vertex 7 0 2.2
    endloop
  endfacet
  facet normal -0 0 1
    outer loop
      vertex 6 26 2.2
      vertex 9 14 2.2
      vertex 18 32 2.2
    endloop
  endfacet
  facet normal 0 0 1
    outer loop
      vertex 5.7 10.5 2.2
      vertex 9 14 2.2
      vertex 6 26 2.2
    endloop
  endfacet
  facet normal 0 0 1
    outer loop
      vertex 9 14 2.2
      vertex 5.7 10.5 2.2
      vertex 6.3 10.5 2.2
    endloop
  endfacet
  facet normal 0 0 1
    outer loop
      vertex -6 26 2.2
      vertex 6 26 2.2
      vertex 0 34 2.2
    endloop
  endfacet
  facet normal 0 0 1
    outer loop
      vertex 6 26 2.2
      vertex -5.7 10.5 2.2
      vertex 5.7 10.5 2.2
    endloop
  endfacet
  facet normal 0 0 1
    outer loop
      vertex 5.7 10.5 2.2
      vertex -5.7 10.5 2.2
      vertex 5.7 0 2.2
    endloop
  endfacet
  facet normal 0 0 1
    outer loop
      vertex 5.7 0 2.2
      vertex -5.7 10.5 2.2
      vertex -5.7 0 2.2
    endloop
  endfacet
  facet normal 0 0 1
    outer loop
      vertex 7 0 2.2
      vertex 6.3 10.5 2.2
      vertex 6.3 0 2.2
    endloop
  endfacet
  facet normal 0.894427 -0.447214 0
    outer loop
      vertex 9 14 2.2
      vertex 18 32 0
      vertex 18 32 2.2
    endloop
  endfacet
  facet normal 0.894427 -0.447214 0
    outer loop
      vertex 18 32 0
      vertex 9 14 2.2
      vertex 9 14 0
    endloop
  endfacet
  facet normal -0.447214 0.894427 0
    outer loop
      vertex 18 32 0
      vertex 6 26 2.2
      vertex 18 32 2.2
    endloop
  endfacet
  facet normal -0.447214 0.894427 0
    outer loop
      vertex 6 26 2.2
      vertex 18 32 0
      vertex 6 26 0
    endloop
  endfacet
  facet normal 0.8 0.6 0
    outer loop
      vertex 6 26 2.2
      vertex 0 34 0
      vertex 0 34 2.2
    endloop
  endfacet
  facet normal 0.8 0.6 0
    outer loop
      vertex 0 34 0
      vertex 6 26 2.2
      vertex 6 26 0
    endloop
  endfacet
  facet normal -0.8 0.6 0
    outer loop
      vertex -6 26 0
      vertex 0 34 2.2
      vertex 0 34 0
    endloop
  endfacet
  facet normal -0.8 0.6 0
    outer loop
      vertex 0 34 2.2
      vertex -6 26 0
      vertex -6 26 2.2
    endloop
  endfacet
  facet normal 0.447214 0.894427 -0
    outer loop
      vertex -6 26 0
      vertex -18 32 2.2
      vertex -6 26 2.2
    endloop
  endfacet
  facet normal 0.447214 0.894427 0
    outer loop
      vertex -18 32 2.2
      vertex -6 26 0
      vertex -18 32 0
    endloop
  endfacet
  facet normal -0.894427 -0.447214 0
    outer loop
      vertex -9 14 0
      vertex -18 32 2.2
      vertex -18 32 0
    endloop
  endfacet
  facet normal -0.894427 -0.447214 0
    outer loop
      vertex -18 32 2.2
      vertex -9 14 0
      vertex -9 14 2.2
    endloop
  endfacet
  facet normal -0.989949 -0.141421 0
    outer loop
      vertex -7 0 0
      vertex -9 14 2.2
      vertex -9 14 0
    endloop
  endfacet
  facet normal -0.989949 -0.141421 0
    outer loop
      vertex -9 14 2.2
      vertex -7 0 0
      vertex -7 0 2.2
    endloop
  endfacet
  facet normal 0 -1 0
    outer loop
      vertex 6.3 0 0
      vertex 7 0 2.2
      vertex 6.3 0 2.2
    endloop
  endfacet
  facet normal 0 -1 -0
    outer loop
      vertex 7 0 2.2
      vertex 6.3 0 0
      vertex 7 0 0
    endloop
  endfacet
  facet normal 0 -1 0
    outer loop
      vertex -7 0 0
      vertex -6.3 0 2.2
      vertex -7 0 2.2
    endloop
  endfacet
  facet normal 0 -1 -0
    outer loop
      vertex -6.3 0 2.2
      vertex -7 0 0
      vertex -6.3 0 0
    endloop
  endfacet
  facet normal 0 -1 0
    outer loop
      vertex -5.7 0 0
      vertex 5.7 0 2.2
      vertex -5.7 0 2.2
    endloop
  endfacet
  facet normal 0 -1 -0
    outer loop
      vertex 5.7 0 2.2
      vertex -5.7 0 0
      vertex 5.7 0 0
    endloop
  endfacet
  facet normal 0.989949 -0.141421 0
    outer loop
      vertex 7 0 2.2
      vertex 9 14 0
      vertex 9 14 2.2
    endloop
  endfacet
  facet normal 0.989949 -0.141421 0
    outer loop
      vertex 9 14 0
      vertex 7 0 2.2
      vertex 7 0 0
    endloop
  endfacet
endsolid OpenSCAD_Model
