solid OpenSCAD_Model
  facet normal 1 -0 0
    outer loop
      vertex -8 -6.3 2.5
      vertex -8 -5.7 0
      vertex -8 -5.7 2.5
    endloop
  endfacet
  facet normal 1 0 0
    outer loop
      vertex -8 -5.7 0
      vertex -8 -6.3 2.5
      vertex -8 -6.3 0
    endloop
  endfacet
  facet normal 0 -1 0
    outer loop
      vertex -8 -5.7 0
      vertex 10 -5.7 2.5
      vertex -8 -5.7 2.5
    endloop
  endfacet
  facet normal 0 -1 -0
    outer loop
      vertex 10 -5.7 2.5
      vertex -8 -5.7 0
      vertex 10 -5.7 0
    endloop
  endfacet
  facet normal 0 1 -0
    outer loop
      vertex 10 -6.3 0
      vertex -8 -6.3 2.5
      vertex 10 -6.3 2.5
    endloop
  endfacet
  facet normal 0 1 0
    outer loop
      vertex -8 -6.3 2.5
      vertex 10 -6.3 0
      vertex -8 -6.3 0
    endloop
  endfacet
  facet normal 1 -0 0
    outer loop
      vertex -8 5.7 2.5
      vertex -8 6.3 0
      vertex -8 6.3 2.5
    endloop
  endfacet
  facet normal 1 0 0
    outer loop
      vertex -8 6.3 0
      vertex -8 5.7 2.5
      vertex -8 5.7 0
    endloop
  endfacet
  facet normal 0 -1 0
    outer loop
      vertex -8 6.3 0
      vertex 10 6.3 2.5
      vertex -8 6.3 2.5
    endloop
  endfacet
  facet normal 0 -1 -0
    outer loop
      vertex 10 6.3 2.5
      vertex -8 6.3 0
      vertex 10 6.3 0
    endloop
  endfacet
  facet normal 0 1 -0
    outer loop
      vertex 10 5.7 0
      vertex -8 5.7 2.5
      vertex 10 5.7 2.5
    endloop
  endfacet
  facet normal 0 1 0
    outer loop
      vertex -8 5.7 2.5
      vertex 10 5.7 0
      vertex -8 5.7 0
    endloop
  endfacet
  facet normal 1 -0 0
    outer loop
      vertex 10 6.3 2.5
      vertex 10 9 0
      vertex 10 9 2.5
    endloop
  endfacet
  facet normal 1 0 0
    outer loop
      vertex 10 9 0
      vertex 10 6.3 2.5
      vertex 10 6.3 0
    endloop
  endfacet
  facet normal 1 -0 0
    outer loop
      vertex 10 -9 2.5
      vertex 10 -6.3 0
      vertex 10 -6.3 2.5
    endloop
  endfacet
  facet normal 1 0 0
    outer loop
      vertex 10 -6.3 0
      vertex 10 -9 2.5
      vertex 10 -9 0
    endloop
  endfacet
  facet normal 1 -0 0
    outer loop
      vertex 10 -5.7 2.5
      vertex 10 5.7 0
      vertex 10 5.7 2.5
    endloop
  endfacet
  facet normal 1 0 0
    outer loop
      vertex 10 5.7 0
      vertex 10 -5.7 2.5
      vertex 10 -5.7 0
    endloop
  endfacet
  facet normal 0 0 1
    outer loop
      vertex 10 9 2.5
      vertex -8 6.3 2.5
      vertex 10 6.3 2.5
    endloop
  endfacet
  facet normal 0 0 1
    outer loop
      vertex -10 9 2.5
      vertex -8 5.7 2.5
      vertex -8 6.3 2.5
    endloop
  endfacet
  facet normal 0 0 1
    outer loop
      vertex -8 5.7 2.5
      vertex -10 9 2.5
      vertex -8 -5.7 2.5
    endloop
  endfacet
  facet normal 0 0 1
    outer loop
      vertex -10 -9 2.5
      vertex -8 -5.7 2.5
      vertex -10 9 2.5
    endloop
  endfacet
  facet normal -0 0 1
    outer loop
      vertex -10 9 2.5
      vertex -8 6.3 2.5
      vertex 10 9 2.5
    endloop
  endfacet
  facet normal -0 0 1
    outer loop
      vertex -8 5.7 2.5
      vertex 10 -5.7 2.5
      vertex 10 5.7 2.5
    endloop
  endfacet
  facet normal 0 0 1
    outer loop
      vertex 10 -5.7 2.5
      vertex -8 5.7 2.5
      vertex -8 -5.7 2.5
    endloop
  endfacet
  facet normal -0 0 1
    outer loop
      vertex -8 -6.3 2.5
      vertex 10 -9 2.5
      vertex 10 -6.3 2.5
    endloop
  endfacet
  facet normal 0 0 1
    outer loop
      vertex -8 -6.3 2.5
      vertex -10 -9 2.5
      vertex 10 -9 2.5
    endloop
  endfacet
  facet normal 0 0 1
    outer loop
      vertex -8 -5.7 2.5
      vertex -10 -9 2.5
      vertex -8 -6.3 2.5
    endloop
  endfacet
  facet normal 0 0 -1
    outer loop
      vertex 10 -9 0
      vertex -8 -6.3 0
      vertex 10 -6.3 0
    endloop
  endfacet
  facet normal 0 0 -1
    outer loop
      vertex -10 -9 0
      vertex -8 -5.7 0
      vertex -8 -6.3 0
    endloop
  endfacet
  facet normal -0 0 -1
    outer loop
      vertex -8 -5.7 0
      vertex -10 -9 0
      vertex -8 5.7 0
    endloop
  endfacet
  facet normal 0 0 -1
    outer loop
      vertex -10 9 0
      vertex -8 5.7 0
      vertex -10 -9 0
    endloop
  endfacet
  facet normal 0 0 -1
    outer loop
      vertex -10 -9 0
      vertex -8 -6.3 0
      vertex 10 -9 0
    endloop
  endfacet
  facet normal 0 0 -1
    outer loop
      vertex -8 -5.7 0
      vertex 10 5.7 0
      vertex 10 -5.7 0
    endloop
  endfacet
  facet normal -0 0 -1
    outer loop
      vertex 10 5.7 0
      vertex -8 -5.7 0
      vertex -8 5.7 0
    endloop
  endfacet
  facet normal 0 0 -1
    outer loop
      vertex -8 6.3 0
      vertex 10 9 0
      vertex 10 6.3 0
    endloop
  endfacet
  facet normal 0 0 -1
    outer loop
      vertex -8 6.3 0
      vertex -10 9 0
      vertex 10 9 0
    endloop
  endfacet
  facet normal 0 0 -1
    outer loop
      vertex -8 5.7 0
      vertex -10 9 0
      vertex -8 6.3 0
    endloop
  endfacet
  facet normal -1 0 0
    outer loop
      vertex -10 -9 0
      vertex -10 9 2.5
      vertex -10 9 0
    endloop
  endfacet
  facet normal -1 -0 0
    outer loop
      vertex -10 9 2.5
      vertex -10 -9 0
      vertex -10 -9 2.5
    endloop
  endfacet
  facet normal 0 1 -0
    outer loop
      vertex 10 9 0
      vertex -10 9 2.5
      vertex 10 9 2.5
    endloop
  endfacet
  facet normal 0 1 0
    outer loop
      vertex -10 9 2.5
      vertex 10 9 0
      vertex -10 9 0
    endloop
  endfacet
  facet normal 0 -1 0
    outer loop
      vertex -10 -9 0
      vertex 10 -9 2.5
      vertex -10 -9 2.5
    endloop
  endfacet
  facet normal 0 -1 -0
    outer loop
      vertex 10 -9 2.5
      vertex -10 -9 0
      vertex 10 -9 0
    endloop
  endfacet
endsolid OpenSCAD_Model
